<mxfile host="app.diagrams.net" modified="2021-05-29T15:29:33.818Z" agent="5.0 (Macintosh; Intel Mac OS X 10_15_7) AppleWebKit/537.36 (KHTML, like Gecko) Chrome/90.0.4430.212 Safari/537.36" etag="EL8zJAI3Q8HKLfEch1lJ" version="14.7.3" type="github">
  <diagram id="JkMvOs5ojRE9gr4JGBI3" name="Page-1">
    <mxGraphModel dx="2193" dy="1607" grid="1" gridSize="1" guides="1" tooltips="1" connect="1" arrows="1" fold="1" page="1" pageScale="1" pageWidth="1507" pageHeight="560" math="0" shadow="0">
      <root>
        <mxCell id="0" />
        <mxCell id="1" parent="0" />
        <mxCell id="9nf_A8TAfy0zUtpwwu4r-2" value="&lt;font style=&quot;font-size: 30px&quot;&gt;Tom&lt;/font&gt;" style="shape=loopLimit;whiteSpace=wrap;html=1;fillColor=#f8cecc;strokeColor=#b85450;" vertex="1" parent="1">
          <mxGeometry x="190" width="100" height="80" as="geometry" />
        </mxCell>
        <mxCell id="9nf_A8TAfy0zUtpwwu4r-3" value="&lt;span style=&quot;font-size: 30px&quot;&gt;How&lt;/span&gt;" style="shape=loopLimit;whiteSpace=wrap;html=1;fillColor=#f8cecc;strokeColor=#b85450;" vertex="1" parent="1">
          <mxGeometry x="310" width="100" height="80" as="geometry" />
        </mxCell>
        <mxCell id="9nf_A8TAfy0zUtpwwu4r-4" value="&lt;span style=&quot;font-size: 30px&quot;&gt;are&lt;/span&gt;" style="shape=loopLimit;whiteSpace=wrap;html=1;fillColor=#f8cecc;strokeColor=#b85450;" vertex="1" parent="1">
          <mxGeometry x="430" width="100" height="80" as="geometry" />
        </mxCell>
        <mxCell id="9nf_A8TAfy0zUtpwwu4r-5" value="&lt;span style=&quot;font-size: 30px&quot;&gt;you&lt;/span&gt;" style="shape=loopLimit;whiteSpace=wrap;html=1;fillColor=#f8cecc;strokeColor=#b85450;" vertex="1" parent="1">
          <mxGeometry x="550" width="100" height="80" as="geometry" />
        </mxCell>
        <mxCell id="9nf_A8TAfy0zUtpwwu4r-7" value="&lt;span style=&quot;font-size: 30px&quot;&gt;Alice&lt;/span&gt;" style="shape=loopLimit;whiteSpace=wrap;html=1;fillColor=#f8cecc;strokeColor=#b85450;" vertex="1" parent="1">
          <mxGeometry x="670" width="100" height="80" as="geometry" />
        </mxCell>
        <mxCell id="9nf_A8TAfy0zUtpwwu4r-8" value="&lt;span style=&quot;font-size: 30px&quot;&gt;Fine&lt;/span&gt;" style="shape=loopLimit;whiteSpace=wrap;html=1;fillColor=#f8cecc;strokeColor=#b85450;" vertex="1" parent="1">
          <mxGeometry x="790" width="100" height="80" as="geometry" />
        </mxCell>
        <mxCell id="9nf_A8TAfy0zUtpwwu4r-9" value="&lt;span style=&quot;font-size: 30px&quot;&gt;and&lt;/span&gt;" style="shape=loopLimit;whiteSpace=wrap;html=1;fillColor=#f8cecc;strokeColor=#b85450;" vertex="1" parent="1">
          <mxGeometry x="910" width="100" height="80" as="geometry" />
        </mxCell>
        <mxCell id="9nf_A8TAfy0zUtpwwu4r-10" value="&lt;span style=&quot;font-size: 30px&quot;&gt;you&lt;/span&gt;&lt;span style=&quot;color: rgba(0 , 0 , 0 , 0) ; font-family: monospace ; font-size: 0px&quot;&gt;%3CmxGraphModel%3E%3Croot%3E%3CmxCell%20id%3D%220%22%2F%3E%3CmxCell%20id%3D%221%22%20parent%3D%220%22%2F%3E%3CmxCell%20id%3D%222%22%20value%3D%22%26lt%3Bspan%20style%3D%26quot%3Bfont-size%3A%2030px%26quot%3B%26gt%3BHow%26lt%3B%2Fspan%26gt%3B%22%20style%3D%22shape%3DloopLimit%3BwhiteSpace%3Dwrap%3Bhtml%3D1%3BfillColor%3D%23f8cecc%3BstrokeColor%3D%23b85450%3B%22%20vertex%3D%221%22%20parent%3D%221%22%3E%3CmxGeometry%20x%3D%22400%22%20y%3D%2280%22%20width%3D%22100%22%20height%3D%2280%22%20as%3D%22geometry%22%2F%3E%3C%2FmxCell%3E%3C%2Froot%3E%3C%2FmxGraphModel%3E&lt;/span&gt;" style="shape=loopLimit;whiteSpace=wrap;html=1;fillColor=#f8cecc;strokeColor=#b85450;" vertex="1" parent="1">
          <mxGeometry x="1030" width="100" height="80" as="geometry" />
        </mxCell>
        <mxCell id="9nf_A8TAfy0zUtpwwu4r-11" value="&lt;span style=&quot;font-size: 30px&quot;&gt;Tom&lt;/span&gt;" style="shape=loopLimit;whiteSpace=wrap;html=1;fillColor=#f8cecc;strokeColor=#b85450;" vertex="1" parent="1">
          <mxGeometry x="1150" width="100" height="80" as="geometry" />
        </mxCell>
        <mxCell id="9nf_A8TAfy0zUtpwwu4r-12" value="&lt;span style=&quot;font-size: 30px&quot;&gt;Me&lt;/span&gt;&lt;span style=&quot;color: rgba(0 , 0 , 0 , 0) ; font-family: monospace ; font-size: 0px&quot;&gt;%3CmxGraphModel%3E%3Croot%3E%3CmxCell%20id%3D%220%22%2F%3E%3CmxCell%20id%3D%221%22%20parent%3D%220%22%2F%3E%3CmxCell%20id%3D%222%22%20value%3D%22%26lt%3Bspan%20style%3D%26quot%3Bfont-size%3A%2030px%26quot%3B%26gt%3BHow%26lt%3B%2Fspan%26gt%3B%22%20style%3D%22shape%3DloopLimit%3BwhiteSpace%3Dwrap%3Bhtml%3D1%3BfillColor%3D%23f8cecc%3BstrokeColor%3D%23b85450%3B%22%20vertex%3D%221%22%20parent%3D%221%22%3E%3CmxGeometry%20x%3D%22400%22%20y%3D%2280%22%20width%3D%22100%22%20height%3D%2280%22%20as%3D%22geometry%22%2F%3E%3C%2FmxCell%3E%3C%2Froot%3E%3C%2FmxGraphModel%3E&lt;/span&gt;" style="shape=loopLimit;whiteSpace=wrap;html=1;fillColor=#f8cecc;strokeColor=#b85450;" vertex="1" parent="1">
          <mxGeometry x="1270" width="100" height="80" as="geometry" />
        </mxCell>
        <mxCell id="9nf_A8TAfy0zUtpwwu4r-13" value="&lt;span style=&quot;font-size: 30px&quot;&gt;too&lt;/span&gt;" style="shape=loopLimit;whiteSpace=wrap;html=1;fillColor=#f8cecc;strokeColor=#b85450;" vertex="1" parent="1">
          <mxGeometry x="1390" width="100" height="80" as="geometry" />
        </mxCell>
        <mxCell id="9nf_A8TAfy0zUtpwwu4r-14" value="Input" style="text;html=1;strokeColor=none;fillColor=none;align=center;verticalAlign=middle;whiteSpace=wrap;rounded=0;opacity=50;fontSize=30;" vertex="1" parent="1">
          <mxGeometry x="8" width="150" height="80" as="geometry" />
        </mxCell>
        <mxCell id="9nf_A8TAfy0zUtpwwu4r-15" value="&amp;lt;s&lt;sub&gt;1&lt;/sub&gt;&amp;gt;" style="rounded=1;whiteSpace=wrap;html=1;fontSize=30;opacity=50;fillColor=#dae8fc;strokeColor=#6c8ebf;" vertex="1" parent="1">
          <mxGeometry x="190" y="120" width="100" height="80" as="geometry" />
        </mxCell>
        <mxCell id="9nf_A8TAfy0zUtpwwu4r-16" value="Processed Input" style="text;html=1;strokeColor=none;fillColor=none;align=center;verticalAlign=middle;whiteSpace=wrap;rounded=0;opacity=50;fontSize=30;" vertex="1" parent="1">
          <mxGeometry x="8" y="120" width="150" height="80" as="geometry" />
        </mxCell>
        <mxCell id="9nf_A8TAfy0zUtpwwu4r-17" value="How" style="rounded=1;whiteSpace=wrap;html=1;fontSize=30;opacity=50;fillColor=#dae8fc;strokeColor=#6c8ebf;" vertex="1" parent="1">
          <mxGeometry x="310" y="120" width="100" height="80" as="geometry" />
        </mxCell>
        <mxCell id="9nf_A8TAfy0zUtpwwu4r-18" value="are" style="rounded=1;whiteSpace=wrap;html=1;fontSize=30;opacity=50;fillColor=#dae8fc;strokeColor=#6c8ebf;" vertex="1" parent="1">
          <mxGeometry x="430" y="120" width="100" height="80" as="geometry" />
        </mxCell>
        <mxCell id="9nf_A8TAfy0zUtpwwu4r-20" value="you" style="rounded=1;whiteSpace=wrap;html=1;fontSize=30;opacity=50;fillColor=#dae8fc;strokeColor=#6c8ebf;" vertex="1" parent="1">
          <mxGeometry x="550" y="120" width="100" height="80" as="geometry" />
        </mxCell>
        <mxCell id="9nf_A8TAfy0zUtpwwu4r-21" value="&amp;lt;s&lt;sub&gt;2&lt;/sub&gt;&amp;gt;" style="rounded=1;whiteSpace=wrap;html=1;fontSize=30;opacity=50;fillColor=#dae8fc;strokeColor=#6c8ebf;" vertex="1" parent="1">
          <mxGeometry x="670" y="120" width="100" height="80" as="geometry" />
        </mxCell>
        <mxCell id="9nf_A8TAfy0zUtpwwu4r-22" value="Fine" style="rounded=1;whiteSpace=wrap;html=1;fontSize=30;opacity=50;fillColor=#dae8fc;strokeColor=#6c8ebf;" vertex="1" parent="1">
          <mxGeometry x="790" y="120" width="100" height="80" as="geometry" />
        </mxCell>
        <mxCell id="9nf_A8TAfy0zUtpwwu4r-23" value="and" style="rounded=1;whiteSpace=wrap;html=1;fontSize=30;opacity=50;fillColor=#dae8fc;strokeColor=#6c8ebf;" vertex="1" parent="1">
          <mxGeometry x="910" y="120" width="100" height="80" as="geometry" />
        </mxCell>
        <mxCell id="9nf_A8TAfy0zUtpwwu4r-24" value="you" style="rounded=1;whiteSpace=wrap;html=1;fontSize=30;opacity=50;fillColor=#dae8fc;strokeColor=#6c8ebf;" vertex="1" parent="1">
          <mxGeometry x="1030" y="120" width="100" height="80" as="geometry" />
        </mxCell>
        <mxCell id="9nf_A8TAfy0zUtpwwu4r-25" value="&amp;lt;s&lt;sub&gt;1&lt;/sub&gt;&amp;gt;" style="rounded=1;whiteSpace=wrap;html=1;fontSize=30;opacity=50;fillColor=#dae8fc;strokeColor=#6c8ebf;" vertex="1" parent="1">
          <mxGeometry x="1150" y="120" width="100" height="80" as="geometry" />
        </mxCell>
        <mxCell id="9nf_A8TAfy0zUtpwwu4r-26" value="Me" style="rounded=1;whiteSpace=wrap;html=1;fontSize=30;opacity=50;fillColor=#dae8fc;strokeColor=#6c8ebf;" vertex="1" parent="1">
          <mxGeometry x="1270" y="120" width="100" height="80" as="geometry" />
        </mxCell>
        <mxCell id="9nf_A8TAfy0zUtpwwu4r-27" value="too" style="rounded=1;whiteSpace=wrap;html=1;fontSize=30;opacity=50;fillColor=#dae8fc;strokeColor=#6c8ebf;" vertex="1" parent="1">
          <mxGeometry x="1390" y="120" width="100" height="80" as="geometry" />
        </mxCell>
        <mxCell id="9nf_A8TAfy0zUtpwwu4r-34" value="" style="endArrow=none;html=1;fontSize=30;strokeWidth=6;" edge="1" parent="1">
          <mxGeometry width="50" height="50" relative="1" as="geometry">
            <mxPoint x="10" y="220" as="sourcePoint" />
            <mxPoint x="1501" y="220" as="targetPoint" />
          </mxGeometry>
        </mxCell>
        <mxCell id="9nf_A8TAfy0zUtpwwu4r-36" value="E&lt;sub&gt;&lt;span style=&quot;font-size: 24px&quot;&gt;&amp;lt;s&lt;/span&gt;&lt;font style=&quot;font-size: 15px&quot;&gt;1&lt;/font&gt;&lt;span style=&quot;font-size: 24px&quot;&gt;&amp;gt;&lt;/span&gt;&lt;/sub&gt;" style="rounded=0;whiteSpace=wrap;html=1;fontSize=30;opacity=50;fillColor=#fff2cc;strokeColor=#d6b656;" vertex="1" parent="1">
          <mxGeometry x="190" y="240" width="100" height="80" as="geometry" />
        </mxCell>
        <mxCell id="9nf_A8TAfy0zUtpwwu4r-38" value="E&lt;sub&gt;How&lt;/sub&gt;" style="rounded=0;whiteSpace=wrap;html=1;fontSize=30;opacity=50;fillColor=#fff2cc;strokeColor=#d6b656;" vertex="1" parent="1">
          <mxGeometry x="310" y="240" width="100" height="80" as="geometry" />
        </mxCell>
        <mxCell id="9nf_A8TAfy0zUtpwwu4r-39" value="E&lt;sub&gt;are&lt;/sub&gt;" style="rounded=0;whiteSpace=wrap;html=1;fontSize=30;opacity=50;fillColor=#fff2cc;strokeColor=#d6b656;" vertex="1" parent="1">
          <mxGeometry x="430" y="240" width="100" height="80" as="geometry" />
        </mxCell>
        <mxCell id="9nf_A8TAfy0zUtpwwu4r-40" value="E&lt;sub&gt;you&lt;/sub&gt;" style="rounded=0;whiteSpace=wrap;html=1;fontSize=30;opacity=50;fillColor=#fff2cc;strokeColor=#d6b656;" vertex="1" parent="1">
          <mxGeometry x="550" y="240" width="100" height="80" as="geometry" />
        </mxCell>
        <mxCell id="9nf_A8TAfy0zUtpwwu4r-41" value="E&lt;sub&gt;&lt;span style=&quot;font-size: 24px&quot;&gt;&amp;lt;s&lt;/span&gt;&lt;font style=&quot;font-size: 15px&quot;&gt;2&lt;/font&gt;&lt;span style=&quot;font-size: 24px&quot;&gt;&amp;gt;&lt;/span&gt;&lt;/sub&gt;" style="rounded=0;whiteSpace=wrap;html=1;fontSize=30;opacity=50;fillColor=#fff2cc;strokeColor=#d6b656;" vertex="1" parent="1">
          <mxGeometry x="670" y="240" width="100" height="80" as="geometry" />
        </mxCell>
        <mxCell id="9nf_A8TAfy0zUtpwwu4r-42" value="E&lt;sub&gt;Fine&lt;/sub&gt;" style="rounded=0;whiteSpace=wrap;html=1;fontSize=30;opacity=50;fillColor=#fff2cc;strokeColor=#d6b656;" vertex="1" parent="1">
          <mxGeometry x="790" y="240" width="100" height="80" as="geometry" />
        </mxCell>
        <mxCell id="9nf_A8TAfy0zUtpwwu4r-43" value="E&lt;sub&gt;and&lt;/sub&gt;" style="rounded=0;whiteSpace=wrap;html=1;fontSize=30;opacity=50;fillColor=#fff2cc;strokeColor=#d6b656;" vertex="1" parent="1">
          <mxGeometry x="910" y="240" width="100" height="80" as="geometry" />
        </mxCell>
        <mxCell id="9nf_A8TAfy0zUtpwwu4r-44" value="E&lt;sub&gt;you&lt;/sub&gt;" style="rounded=0;whiteSpace=wrap;html=1;fontSize=30;opacity=50;fillColor=#fff2cc;strokeColor=#d6b656;" vertex="1" parent="1">
          <mxGeometry x="1030" y="240" width="100" height="80" as="geometry" />
        </mxCell>
        <mxCell id="9nf_A8TAfy0zUtpwwu4r-45" value="E&lt;sub&gt;&lt;span style=&quot;font-size: 24px&quot;&gt;&amp;lt;s&lt;/span&gt;&lt;font style=&quot;font-size: 15px&quot;&gt;1&lt;/font&gt;&lt;span style=&quot;font-size: 24px&quot;&gt;&amp;gt;&lt;/span&gt;&lt;/sub&gt;" style="rounded=0;whiteSpace=wrap;html=1;fontSize=30;opacity=50;fillColor=#fff2cc;strokeColor=#d6b656;" vertex="1" parent="1">
          <mxGeometry x="1150" y="240" width="100" height="80" as="geometry" />
        </mxCell>
        <mxCell id="9nf_A8TAfy0zUtpwwu4r-46" value="E&lt;sub&gt;Me&lt;/sub&gt;" style="rounded=0;whiteSpace=wrap;html=1;fontSize=30;opacity=50;fillColor=#fff2cc;strokeColor=#d6b656;" vertex="1" parent="1">
          <mxGeometry x="1270" y="240" width="100" height="80" as="geometry" />
        </mxCell>
        <mxCell id="9nf_A8TAfy0zUtpwwu4r-47" value="E&lt;sub&gt;too&lt;/sub&gt;" style="rounded=0;whiteSpace=wrap;html=1;fontSize=30;opacity=50;fillColor=#fff2cc;strokeColor=#d6b656;" vertex="1" parent="1">
          <mxGeometry x="1390" y="240" width="100" height="80" as="geometry" />
        </mxCell>
        <mxCell id="9nf_A8TAfy0zUtpwwu4r-48" value="Token Embeddings" style="text;html=1;strokeColor=none;fillColor=none;align=center;verticalAlign=middle;whiteSpace=wrap;rounded=0;opacity=50;fontSize=30;" vertex="1" parent="1">
          <mxGeometry x="8" y="240" width="150" height="80" as="geometry" />
        </mxCell>
        <mxCell id="9nf_A8TAfy0zUtpwwu4r-50" value="E&lt;span style=&quot;font-size: 24px&quot;&gt;&lt;sub&gt;0&lt;/sub&gt;&lt;/span&gt;" style="rounded=0;whiteSpace=wrap;html=1;fontSize=30;opacity=50;fillColor=#f5f5f5;strokeColor=#666666;gradientColor=#b3b3b3;" vertex="1" parent="1">
          <mxGeometry x="190" y="360" width="100" height="80" as="geometry" />
        </mxCell>
        <mxCell id="9nf_A8TAfy0zUtpwwu4r-53" value="E&lt;sub&gt;&lt;span style=&quot;font-size: 24px&quot;&gt;1&lt;/span&gt;&lt;/sub&gt;" style="rounded=0;whiteSpace=wrap;html=1;fontSize=30;opacity=50;fillColor=#f5f5f5;strokeColor=#666666;gradientColor=#b3b3b3;" vertex="1" parent="1">
          <mxGeometry x="310" y="360" width="100" height="80" as="geometry" />
        </mxCell>
        <mxCell id="9nf_A8TAfy0zUtpwwu4r-54" value="E&lt;sub&gt;&lt;span style=&quot;font-size: 24px&quot;&gt;2&lt;/span&gt;&lt;/sub&gt;" style="rounded=0;whiteSpace=wrap;html=1;fontSize=30;opacity=50;fillColor=#f5f5f5;strokeColor=#666666;gradientColor=#b3b3b3;" vertex="1" parent="1">
          <mxGeometry x="430" y="360" width="100" height="80" as="geometry" />
        </mxCell>
        <mxCell id="9nf_A8TAfy0zUtpwwu4r-55" value="E&lt;sub&gt;&lt;span style=&quot;font-size: 24px&quot;&gt;3&lt;/span&gt;&lt;/sub&gt;" style="rounded=0;whiteSpace=wrap;html=1;fontSize=30;opacity=50;fillColor=#f5f5f5;strokeColor=#666666;gradientColor=#b3b3b3;" vertex="1" parent="1">
          <mxGeometry x="550" y="360" width="100" height="80" as="geometry" />
        </mxCell>
        <mxCell id="9nf_A8TAfy0zUtpwwu4r-57" value="E&lt;sub&gt;&lt;span style=&quot;font-size: 24px&quot;&gt;4&lt;/span&gt;&lt;/sub&gt;" style="rounded=0;whiteSpace=wrap;html=1;fontSize=30;opacity=50;fillColor=#f5f5f5;strokeColor=#666666;gradientColor=#b3b3b3;" vertex="1" parent="1">
          <mxGeometry x="670" y="360" width="100" height="80" as="geometry" />
        </mxCell>
        <mxCell id="9nf_A8TAfy0zUtpwwu4r-58" value="" style="shape=cross;whiteSpace=wrap;html=1;fontSize=30;fillColor=#000000;gradientColor=none;opacity=50;" vertex="1" parent="1">
          <mxGeometry x="230" y="330" width="20" height="20" as="geometry" />
        </mxCell>
        <mxCell id="9nf_A8TAfy0zUtpwwu4r-61" value="" style="shape=cross;whiteSpace=wrap;html=1;fontSize=30;fillColor=#000000;gradientColor=none;opacity=50;" vertex="1" parent="1">
          <mxGeometry x="350" y="330" width="20" height="20" as="geometry" />
        </mxCell>
        <mxCell id="9nf_A8TAfy0zUtpwwu4r-62" value="" style="shape=cross;whiteSpace=wrap;html=1;fontSize=30;fillColor=#000000;gradientColor=none;opacity=50;" vertex="1" parent="1">
          <mxGeometry x="470" y="330" width="20" height="20" as="geometry" />
        </mxCell>
        <mxCell id="9nf_A8TAfy0zUtpwwu4r-66" value="" style="shape=cross;whiteSpace=wrap;html=1;fontSize=30;fillColor=#000000;gradientColor=none;opacity=50;" vertex="1" parent="1">
          <mxGeometry x="830" y="330" width="20" height="20" as="geometry" />
        </mxCell>
        <mxCell id="9nf_A8TAfy0zUtpwwu4r-67" value="" style="shape=cross;whiteSpace=wrap;html=1;fontSize=30;fillColor=#000000;gradientColor=none;opacity=50;" vertex="1" parent="1">
          <mxGeometry x="590" y="330" width="20" height="20" as="geometry" />
        </mxCell>
        <mxCell id="9nf_A8TAfy0zUtpwwu4r-68" value="" style="shape=cross;whiteSpace=wrap;html=1;fontSize=30;fillColor=#000000;gradientColor=none;opacity=50;" vertex="1" parent="1">
          <mxGeometry x="710" y="330" width="20" height="20" as="geometry" />
        </mxCell>
        <mxCell id="9nf_A8TAfy0zUtpwwu4r-69" value="" style="shape=cross;whiteSpace=wrap;html=1;fontSize=30;fillColor=#000000;gradientColor=none;opacity=50;" vertex="1" parent="1">
          <mxGeometry x="950" y="330" width="20" height="20" as="geometry" />
        </mxCell>
        <mxCell id="9nf_A8TAfy0zUtpwwu4r-70" value="" style="shape=cross;whiteSpace=wrap;html=1;fontSize=30;fillColor=#000000;gradientColor=none;opacity=50;" vertex="1" parent="1">
          <mxGeometry x="1070" y="330" width="20" height="20" as="geometry" />
        </mxCell>
        <mxCell id="9nf_A8TAfy0zUtpwwu4r-71" value="" style="shape=cross;whiteSpace=wrap;html=1;fontSize=30;fillColor=#000000;gradientColor=none;opacity=50;" vertex="1" parent="1">
          <mxGeometry x="1190" y="330" width="20" height="20" as="geometry" />
        </mxCell>
        <mxCell id="9nf_A8TAfy0zUtpwwu4r-72" value="" style="shape=cross;whiteSpace=wrap;html=1;fontSize=30;fillColor=#000000;gradientColor=none;opacity=50;" vertex="1" parent="1">
          <mxGeometry x="1310" y="330" width="20" height="20" as="geometry" />
        </mxCell>
        <mxCell id="9nf_A8TAfy0zUtpwwu4r-73" value="" style="shape=cross;whiteSpace=wrap;html=1;fontSize=30;fillColor=#000000;gradientColor=none;opacity=50;" vertex="1" parent="1">
          <mxGeometry x="1430" y="330" width="20" height="20" as="geometry" />
        </mxCell>
        <mxCell id="9nf_A8TAfy0zUtpwwu4r-74" value="E&lt;sub&gt;&lt;span style=&quot;font-size: 24px&quot;&gt;5&lt;/span&gt;&lt;/sub&gt;" style="rounded=0;whiteSpace=wrap;html=1;fontSize=30;opacity=50;fillColor=#f5f5f5;strokeColor=#666666;gradientColor=#b3b3b3;" vertex="1" parent="1">
          <mxGeometry x="790" y="360" width="100" height="80" as="geometry" />
        </mxCell>
        <mxCell id="9nf_A8TAfy0zUtpwwu4r-75" value="E&lt;span style=&quot;font-size: 24px&quot;&gt;6&lt;/span&gt;" style="rounded=0;whiteSpace=wrap;html=1;fontSize=30;opacity=50;fillColor=#f5f5f5;strokeColor=#666666;gradientColor=#b3b3b3;" vertex="1" parent="1">
          <mxGeometry x="910" y="360" width="100" height="80" as="geometry" />
        </mxCell>
        <mxCell id="9nf_A8TAfy0zUtpwwu4r-76" value="E&lt;sub&gt;&lt;span style=&quot;font-size: 24px&quot;&gt;7&lt;/span&gt;&lt;/sub&gt;" style="rounded=0;whiteSpace=wrap;html=1;fontSize=30;opacity=50;fillColor=#f5f5f5;strokeColor=#666666;gradientColor=#b3b3b3;" vertex="1" parent="1">
          <mxGeometry x="1030" y="360" width="100" height="80" as="geometry" />
        </mxCell>
        <mxCell id="9nf_A8TAfy0zUtpwwu4r-77" value="E&lt;sub&gt;&lt;span style=&quot;font-size: 24px&quot;&gt;8&lt;/span&gt;&lt;/sub&gt;" style="rounded=0;whiteSpace=wrap;html=1;fontSize=30;opacity=50;fillColor=#f5f5f5;strokeColor=#666666;gradientColor=#b3b3b3;" vertex="1" parent="1">
          <mxGeometry x="1150" y="360" width="100" height="80" as="geometry" />
        </mxCell>
        <mxCell id="9nf_A8TAfy0zUtpwwu4r-78" value="E&lt;sub&gt;&lt;span style=&quot;font-size: 24px&quot;&gt;9&lt;/span&gt;&lt;/sub&gt;" style="rounded=0;whiteSpace=wrap;html=1;fontSize=30;opacity=50;fillColor=#f5f5f5;strokeColor=#666666;gradientColor=#b3b3b3;" vertex="1" parent="1">
          <mxGeometry x="1270" y="360" width="100" height="80" as="geometry" />
        </mxCell>
        <mxCell id="9nf_A8TAfy0zUtpwwu4r-79" value="E&lt;span style=&quot;font-size: 24px&quot;&gt;&lt;sub&gt;10&lt;/sub&gt;&lt;/span&gt;" style="rounded=0;whiteSpace=wrap;html=1;fontSize=30;opacity=50;fillColor=#f5f5f5;strokeColor=#666666;gradientColor=#b3b3b3;" vertex="1" parent="1">
          <mxGeometry x="1390" y="360" width="100" height="80" as="geometry" />
        </mxCell>
        <mxCell id="9nf_A8TAfy0zUtpwwu4r-80" value="Position Embeddings" style="text;html=1;strokeColor=none;fillColor=none;align=center;verticalAlign=middle;whiteSpace=wrap;rounded=0;opacity=50;fontSize=30;" vertex="1" parent="1">
          <mxGeometry x="8" y="360" width="150" height="80" as="geometry" />
        </mxCell>
        <mxCell id="9nf_A8TAfy0zUtpwwu4r-81" value="" style="shape=cross;whiteSpace=wrap;html=1;fontSize=30;fillColor=#000000;gradientColor=none;opacity=50;" vertex="1" parent="1">
          <mxGeometry x="231" y="450" width="20" height="20" as="geometry" />
        </mxCell>
        <mxCell id="9nf_A8TAfy0zUtpwwu4r-82" value="" style="shape=cross;whiteSpace=wrap;html=1;fontSize=30;fillColor=#000000;gradientColor=none;opacity=50;" vertex="1" parent="1">
          <mxGeometry x="351" y="450" width="20" height="20" as="geometry" />
        </mxCell>
        <mxCell id="9nf_A8TAfy0zUtpwwu4r-83" value="" style="shape=cross;whiteSpace=wrap;html=1;fontSize=30;fillColor=#000000;gradientColor=none;opacity=50;" vertex="1" parent="1">
          <mxGeometry x="471" y="450" width="20" height="20" as="geometry" />
        </mxCell>
        <mxCell id="9nf_A8TAfy0zUtpwwu4r-84" value="" style="shape=cross;whiteSpace=wrap;html=1;fontSize=30;fillColor=#000000;gradientColor=none;opacity=50;" vertex="1" parent="1">
          <mxGeometry x="831" y="450" width="20" height="20" as="geometry" />
        </mxCell>
        <mxCell id="9nf_A8TAfy0zUtpwwu4r-85" value="" style="shape=cross;whiteSpace=wrap;html=1;fontSize=30;fillColor=#000000;gradientColor=none;opacity=50;" vertex="1" parent="1">
          <mxGeometry x="591" y="450" width="20" height="20" as="geometry" />
        </mxCell>
        <mxCell id="9nf_A8TAfy0zUtpwwu4r-86" value="" style="shape=cross;whiteSpace=wrap;html=1;fontSize=30;fillColor=#000000;gradientColor=none;opacity=50;" vertex="1" parent="1">
          <mxGeometry x="711" y="450" width="20" height="20" as="geometry" />
        </mxCell>
        <mxCell id="9nf_A8TAfy0zUtpwwu4r-87" value="" style="shape=cross;whiteSpace=wrap;html=1;fontSize=30;fillColor=#000000;gradientColor=none;opacity=50;" vertex="1" parent="1">
          <mxGeometry x="951" y="450" width="20" height="20" as="geometry" />
        </mxCell>
        <mxCell id="9nf_A8TAfy0zUtpwwu4r-88" value="" style="shape=cross;whiteSpace=wrap;html=1;fontSize=30;fillColor=#000000;gradientColor=none;opacity=50;" vertex="1" parent="1">
          <mxGeometry x="1071" y="450" width="20" height="20" as="geometry" />
        </mxCell>
        <mxCell id="9nf_A8TAfy0zUtpwwu4r-89" value="" style="shape=cross;whiteSpace=wrap;html=1;fontSize=30;fillColor=#000000;gradientColor=none;opacity=50;" vertex="1" parent="1">
          <mxGeometry x="1191" y="450" width="20" height="20" as="geometry" />
        </mxCell>
        <mxCell id="9nf_A8TAfy0zUtpwwu4r-90" value="" style="shape=cross;whiteSpace=wrap;html=1;fontSize=30;fillColor=#000000;gradientColor=none;opacity=50;" vertex="1" parent="1">
          <mxGeometry x="1311" y="450" width="20" height="20" as="geometry" />
        </mxCell>
        <mxCell id="9nf_A8TAfy0zUtpwwu4r-91" value="" style="shape=cross;whiteSpace=wrap;html=1;fontSize=30;fillColor=#000000;gradientColor=none;opacity=50;" vertex="1" parent="1">
          <mxGeometry x="1431" y="450" width="20" height="20" as="geometry" />
        </mxCell>
        <mxCell id="9nf_A8TAfy0zUtpwwu4r-92" value="V&lt;sub&gt;1&lt;/sub&gt;" style="rounded=0;whiteSpace=wrap;html=1;fontSize=30;opacity=50;fillColor=#d5e8d4;strokeColor=#82b366;" vertex="1" parent="1">
          <mxGeometry x="191" y="480" width="100" height="80" as="geometry" />
        </mxCell>
        <mxCell id="9nf_A8TAfy0zUtpwwu4r-93" value="V&lt;sub&gt;1&lt;/sub&gt;" style="rounded=0;whiteSpace=wrap;html=1;fontSize=30;opacity=50;fillColor=#d5e8d4;strokeColor=#82b366;" vertex="1" parent="1">
          <mxGeometry x="311" y="480" width="100" height="80" as="geometry" />
        </mxCell>
        <mxCell id="9nf_A8TAfy0zUtpwwu4r-94" value="V&lt;sub&gt;1&lt;/sub&gt;" style="rounded=0;whiteSpace=wrap;html=1;fontSize=30;opacity=50;fillColor=#d5e8d4;strokeColor=#82b366;" vertex="1" parent="1">
          <mxGeometry x="431" y="480" width="100" height="80" as="geometry" />
        </mxCell>
        <mxCell id="9nf_A8TAfy0zUtpwwu4r-95" value="V&lt;sub&gt;1&lt;/sub&gt;" style="rounded=0;whiteSpace=wrap;html=1;fontSize=30;opacity=50;fillColor=#d5e8d4;strokeColor=#82b366;" vertex="1" parent="1">
          <mxGeometry x="551" y="480" width="100" height="80" as="geometry" />
        </mxCell>
        <mxCell id="9nf_A8TAfy0zUtpwwu4r-96" value="V&lt;sub&gt;2&lt;/sub&gt;" style="rounded=0;whiteSpace=wrap;html=1;fontSize=30;opacity=50;fillColor=#d5e8d4;strokeColor=#82b366;" vertex="1" parent="1">
          <mxGeometry x="671" y="480" width="100" height="80" as="geometry" />
        </mxCell>
        <mxCell id="9nf_A8TAfy0zUtpwwu4r-97" value="V&lt;sub&gt;2&lt;/sub&gt;" style="rounded=0;whiteSpace=wrap;html=1;fontSize=30;opacity=50;fillColor=#d5e8d4;strokeColor=#82b366;" vertex="1" parent="1">
          <mxGeometry x="791" y="480" width="100" height="80" as="geometry" />
        </mxCell>
        <mxCell id="9nf_A8TAfy0zUtpwwu4r-98" value="V&lt;sub&gt;2&lt;/sub&gt;" style="rounded=0;whiteSpace=wrap;html=1;fontSize=30;opacity=50;fillColor=#d5e8d4;strokeColor=#82b366;" vertex="1" parent="1">
          <mxGeometry x="911" y="480" width="100" height="80" as="geometry" />
        </mxCell>
        <mxCell id="9nf_A8TAfy0zUtpwwu4r-99" value="V&lt;sub&gt;2&lt;/sub&gt;" style="rounded=0;whiteSpace=wrap;html=1;fontSize=30;opacity=50;fillColor=#d5e8d4;strokeColor=#82b366;" vertex="1" parent="1">
          <mxGeometry x="1031" y="480" width="100" height="80" as="geometry" />
        </mxCell>
        <mxCell id="9nf_A8TAfy0zUtpwwu4r-100" value="&lt;span&gt;V&lt;/span&gt;&lt;sub&gt;1&lt;/sub&gt;" style="rounded=0;whiteSpace=wrap;html=1;fontSize=30;opacity=50;fillColor=#d5e8d4;strokeColor=#82b366;" vertex="1" parent="1">
          <mxGeometry x="1151" y="480" width="100" height="80" as="geometry" />
        </mxCell>
        <mxCell id="9nf_A8TAfy0zUtpwwu4r-101" value="V&lt;sub&gt;1&lt;/sub&gt;" style="rounded=0;whiteSpace=wrap;html=1;fontSize=30;opacity=50;fillColor=#d5e8d4;strokeColor=#82b366;" vertex="1" parent="1">
          <mxGeometry x="1271" y="480" width="100" height="80" as="geometry" />
        </mxCell>
        <mxCell id="9nf_A8TAfy0zUtpwwu4r-102" value="V&lt;sub&gt;1&lt;/sub&gt;" style="rounded=0;whiteSpace=wrap;html=1;fontSize=30;opacity=50;fillColor=#d5e8d4;strokeColor=#82b366;" vertex="1" parent="1">
          <mxGeometry x="1391" y="480" width="100" height="80" as="geometry" />
        </mxCell>
        <mxCell id="9nf_A8TAfy0zUtpwwu4r-103" value="Interlocutor Embeddings" style="text;html=1;strokeColor=none;fillColor=none;align=center;verticalAlign=middle;whiteSpace=wrap;rounded=0;opacity=50;fontSize=30;" vertex="1" parent="1">
          <mxGeometry x="9" y="480" width="150" height="80" as="geometry" />
        </mxCell>
      </root>
    </mxGraphModel>
  </diagram>
</mxfile>
